<?xml version="1.0" encoding="utf-8"?>
<!-- Generator: Adobe Illustrator 23.0.2, SVG Export Plug-In . SVG Version: 6.00 Build 0)  -->
<svg version="1.1" id="Capa_1" xmlns="http://www.w3.org/2000/svg" xmlns:xlink="http://www.w3.org/1999/xlink" x="0px" y="0px"
	 viewBox="0 0 115.9 164.9" style="enable-background:new 0 0 115.9 164.9;" xml:space="preserve">
<style type="text/css">
	.st0{fill:#FFFFFF;}
	.st1{fill:#EC1C24;stroke:#EC1C24;stroke-miterlimit:10;}
	.st2{fill:#A8996F;}
</style>
<g>
	<path class="st0" d="M108.7,35.8H7.2V128c0,3.6,0.9,7,2.8,10c1.8,2.9,4.3,5.2,7.5,7c5.7,3.1,11.2,3.6,16.1,4
		c3.6,0.3,6.7,0.6,9.8,1.8c3.4,1.3,6.4,3.7,9.5,7.5l2.3,2.8l2.7,3.3l2.7-3.3l2.3-2.8c3.1-3.8,6.1-6.2,9.5-7.5
		c3.1-1.2,6.2-1.5,9.8-1.8c4.9-0.4,10.4-0.9,16.1-4c3.2-1.7,5.7-4.1,7.5-7c1.8-3,2.8-6.3,2.8-10L108.7,35.8z"/>
	<path class="st1" d="M102.1,42.2H13.6v85.7c0,4.9,2.5,8.9,6.9,11.3c12,6.6,23.9-1.7,37.4,14.9c13.5-16.5,25.3-8.3,37.4-14.9
		c4.4-2.4,6.9-6.3,6.9-11.3L102.1,42.2z"/>
	<polygon class="st2" points="52.4,19.1 50.1,28.4 58,23.8 65.8,28.4 63.7,19.1 70.4,12.9 61,12.9 58,3.5 55.1,12.9 45.5,12.9 	"/>
	<path class="st2" d="M102.2,42.2v85.7c0,4.9-2.5,8.9-6.9,11.3c-12,6.6-23.8-1.7-37.3,14.9c-13.5-16.5-25.4-8.3-37.5-14.9
		c-4.4-2.4-6.9-6.3-6.9-11.3V42.2L102.2,42.2 M105.2,39.3H10.7V128c0,3,0.8,5.7,2.2,8.1c1.5,2.3,3.5,4.3,6.2,5.7
		c5.1,2.8,10,3.2,14.7,3.6c3.7,0.3,7.2,0.6,10.8,2c4,1.6,7.5,4.3,11,8.6l2.3,2.8l2.3-2.8c3.5-4.3,7-7,11-8.6c3.5-1.4,7-1.7,10.8-2
		c4.8-0.4,9.7-0.8,14.7-3.6c2.6-1.4,4.7-3.4,6.2-5.7c1.5-2.4,2.2-5.1,2.2-8.1L105.2,39.3L105.2,39.3z"/>
	<path class="st0" d="M71.9,62.9L71.9,62.9L71.9,62.9z"/>
	<g>
		<path class="st0" d="M26.4,138.3c2.6,0.7,5.3,0.9,8.1,1.2c1.5,0.1,3,0.3,4.6,0.5V69.9H26.4V138.3z M76.9,69.9V140
			c1.6-0.2,3.1-0.3,4.6-0.5c2.8-0.2,5.5-0.5,8.1-1.2V69.9H76.9z M51.7,144.3c2.1,1.3,4.2,3,6.3,5.3c2.1-2.2,4.2-4,6.3-5.3V69.9H51.7
			V144.3z"/>
		<path class="st0" d="M29.4,61.7h7.4v2.7H26.4V49.2h10.4v2.7h-7.4v3.5h6.8v2.7h-6.8V61.7z"/>
		<path class="st0" d="M65.2,49.2h3v12.5h6.8v2.6h-9.8V49.2z"/>
		<path class="st0" d="M79.4,49.2h5.6c3.5,0,5.4,0.7,5.6,4.3c0,0.2,0,1.3,0,1.6c0,3.3-2.1,4.6-4.8,4.6h-3.4v4.7h-2.9L79.4,49.2
			L79.4,49.2z M82.4,57.1h2.4c2.1,0,2.8-0.6,2.9-2.1c0-0.2,0-1.1,0-1.2c0-1.8-1-2.1-3-2.1h-2.2v5.4H82.4z"/>
		<g>
			<path class="st0" d="M60.9,59.8v-2.4c0-2.8-1.3-4.4-4.3-4.4c-2.9,0-4.3,1.7-4.4,4.6v3.1c0,2.3,1.5,3.9,4.5,3.9
				c1.7,0,2.8-0.5,4-1.2l-0.8-1.8c-1.1,0.6-1.7,0.9-3,0.9c-1.5,0-2-0.8-2-1.7v-0.9L60.9,59.8L60.9,59.8z M56.6,55.1
				c1.5,0,1.8,1,1.8,2.8h-3.7C54.7,55.9,55.1,55.1,56.6,55.1z"/>
			<path class="st0" d="M50.2,64.3V49.1h-2.5v4.8c-0.6-0.6-1.6-0.8-2.7-0.8c-2.5,0-3.7,1.7-3.7,4.4V60c0,2.8,1.3,4.4,3.8,4.4
				c1.1,0,2-0.4,2.6-1c0,0.1,0,0.8,0,0.8L50.2,64.3L50.2,64.3z M45.7,62.1c-1.3,0-1.9-0.8-1.9-2.4V58c0-1.6,0.6-2.4,1.9-2.4
				c0.8,0,1.4,0.4,2,1v4.6C47.1,61.7,46.5,62.1,45.7,62.1z"/>
		</g>
	</g>
</g>
</svg>
